<?xml version="1.0" encoding="utf-8"?>
<!-- Generator: Adobe Illustrator 21.1.0, SVG Export Plug-In . SVG Version: 6.00 Build 0)  -->
<svg version="1.1" id="Lager_1" xmlns="http://www.w3.org/2000/svg" xmlns:xlink="http://www.w3.org/1999/xlink" x="0px" y="0px"
	 viewBox="0 0 250 105" style="enable-background:new 0 0 250 105;" xml:space="preserve">
<style type="text/css">
	.st0{fill:#C0272D;}
	.st1{fill:#FFFFFF;}
</style>
<g>
	<path class="st0" d="M141.9,45.2V31.3h-2.3v-2.2h4.8v7c1.5-1.2,2.9-1.8,4.3-1.8c0.8,0,1.5,0.2,2.1,0.5c0.5,0.4,0.9,0.8,1.1,1.4
		c0.2,0.6,0.3,1.4,0.3,2.5v6.5h2.2v2.2h-4.7v-7.8c0-1,0-1.6-0.1-1.9c-0.1-0.3-0.2-0.6-0.5-0.8c-0.3-0.2-0.6-0.3-1-0.3
		c-1,0-2.2,0.6-3.7,1.6v7h2.2v2.2h-7v-2.2H141.9z"/>
	<path class="st0" d="M155.2,41c0-2,0.7-3.6,2-4.8c1.3-1.3,2.9-1.9,4.8-1.9c1.8,0,3.4,0.6,4.7,1.9c1.3,1.2,2,2.9,2,4.9
		c0,2-0.7,3.6-2,4.9c-1.3,1.2-2.9,1.9-4.7,1.9c-1.9,0-3.5-0.6-4.8-1.9C155.8,44.6,155.2,43,155.2,41z M157.8,41
		c0,1.3,0.4,2.3,1.2,3.1c0.8,0.8,1.8,1.2,2.9,1.2c1.2,0,2.1-0.4,2.9-1.2c0.8-0.8,1.2-1.8,1.2-3.1c0-1.3-0.4-2.3-1.2-3.1
		c-0.8-0.8-1.8-1.2-2.9-1.2c-1.2,0-2.2,0.4-2.9,1.2C158.2,38.8,157.8,39.8,157.8,41z"/>
	<path class="st0" d="M182.2,34.6v4.8H180c-0.1-0.9-0.5-1.6-1.1-2.1c-0.6-0.5-1.4-0.7-2.2-0.7c-1.1,0-2,0.4-2.7,1.2
		c-0.7,0.8-1.1,1.8-1.1,3.1c0,1.2,0.3,2.3,1,3.2c0.7,0.9,1.6,1.4,2.9,1.4c1.8,0,3-0.8,3.8-2.5l2.1,1c-1.1,2.5-3.1,3.8-6,3.8
		c-2,0-3.6-0.7-4.8-2.1c-1.2-1.4-1.7-3-1.7-4.8c0-1.9,0.6-3.5,1.9-4.8c1.3-1.3,2.7-1.9,4.4-1.9c1.4,0,2.6,0.4,3.6,1.3v-0.9H182.2z"
		/>
	<path class="st0" d="M186.2,45.2V31.3h-2.3v-2.2h4.8v11.5l4.8-3.8h-2.1v-2.1h7.1v2.1h-2l-4.8,4l4.5,4.5h2.2v2.2h-3.3l-6.4-6.4v4.2
		h2.2v2.2h-7v-2.2H186.2z"/>
	<path class="st0" d="M212.4,41.7h-10.7c0.2,1.2,0.6,2.1,1.4,2.9c0.8,0.7,1.8,1.1,3,1.1c1.7,0,3.1-0.7,4.2-2.1l2.2,1
		c-0.7,1.1-1.7,1.9-2.8,2.5c-1.2,0.5-2.4,0.8-3.6,0.8c-2,0-3.6-0.6-5-1.8c-1.4-1.2-2.1-2.9-2.1-4.9c0-2,0.7-3.6,2-4.8
		c1.4-1.3,2.9-1.9,4.7-1.9c1.7,0,3.3,0.6,4.7,1.9C211.7,37.4,212.4,39.2,212.4,41.7z M209.9,39.8c-0.2-0.9-0.6-1.7-1.4-2.4
		c-0.8-0.7-1.7-1.1-2.8-1.1c-1,0-1.9,0.3-2.6,1c-0.7,0.7-1.1,1.5-1.3,2.5H209.9z"/>
	<path class="st0" d="M218.9,47.2l-4.2-10.3h-2.1v-2.2h6.3v2.2h-1.5l2.8,7.1l2.7-7.1h-1.7v-2.2h6.2v2.2h-1.9l-6.3,16.3h-4.2V51h2.5
		L218.9,47.2z"/>
	<path class="st0" d="M30.7,40.2l6.1,2c-2.6,4-6.6,6-12.1,6c-4.4,0-7.8-1.1-10.2-3.4c-2.4-2.3-3.7-5.3-3.7-9.1c0-3.8,1.3-7,3.8-9.6
		c2.5-2.6,5.7-3.8,9.6-3.8c2.8,0,5.3,0.7,7.3,2.1c2.1,1.4,3.5,3.2,4.3,5.3c0.8,2.1,1.2,4.5,1.2,7.1H18.7c0.1,2.3,0.8,3.8,2.1,4.8
		c1.3,0.9,2.7,1.4,4.1,1.4C26.8,43.1,28.7,42.1,30.7,40.2z M29.1,32.5C29,31.1,28.4,30,27.5,29c-0.9-1-2.1-1.5-3.7-1.5
		c-2.9,0-4.6,1.7-5.1,5H29.1z"/>
	<path class="st0" d="M40.3,47.6v-5.7h3.9V17.8h-3.9v-5.7h11.8v29.8h3.6v5.7H40.3z"/>
	<path class="st0" d="M59.1,28.6v-5.7h11.6v19h3.7v5.7H59.1v-5.7h3.7V28.6H59.1z M62.6,15.8c0-1.2,0.4-2.2,1.3-3.1
		c0.8-0.8,1.9-1.3,3.1-1.3c1.2,0,2.2,0.4,3.1,1.3c0.8,0.8,1.3,1.9,1.3,3.1c0,1.2-0.4,2.2-1.3,3c-0.8,0.8-1.9,1.3-3.1,1.3
		c-1.2,0-2.2-0.4-3-1.3C63,18,62.6,17,62.6,15.8z"/>
	<path class="st0" d="M76.4,28.6v-5.7h3.1V19l7.9-5.7v9.6H92v5.7h-4.5v10.7c0,1,0.1,1.6,0.4,2c0.2,0.3,0.8,0.5,1.7,0.5
		c0.7,0,1.6-0.2,2.5-0.5v5.5c-2,0.8-4,1.3-5.9,1.3c-4.3,0-6.5-2.1-6.5-6.4V28.6H76.4z"/>
	<path class="st0" d="M114.4,40.2l6.1,2c-2.6,4-6.6,6-12.1,6c-4.4,0-7.8-1.1-10.2-3.4c-2.4-2.3-3.7-5.3-3.7-9.1c0-3.8,1.3-7,3.8-9.6
		c2.5-2.6,5.7-3.8,9.6-3.8c2.8,0,5.3,0.7,7.3,2.1c2.1,1.4,3.5,3.2,4.3,5.3c0.8,2.1,1.2,4.5,1.2,7.1h-18.4c0.1,2.3,0.8,3.8,2.1,4.8
		c1.3,0.9,2.7,1.4,4.1,1.4C110.6,43.1,112.5,42.1,114.4,40.2z M112.9,32.5c-0.2-1.4-0.7-2.5-1.6-3.5c-0.9-1-2.1-1.5-3.7-1.5
		c-2.9,0-4.6,1.7-5.1,5H112.9z"/>
	<path class="st1" d="M14.6,89.2V62h-4.2v-4.3h9v3.9c2.4-2.8,5.3-4.3,8.8-4.3c3.5,0,6.4,1.2,8.6,3.6c2.3,2.4,3.4,5.5,3.4,9.3
		c0,4-1.2,7.2-3.7,9.5c-2.5,2.3-5.3,3.5-8.4,3.5c-3.3,0-6.2-1.3-8.7-3.8v9.8h4.8v4.3H10.1v-4.3H14.6z M19.4,70.4
		c0,1.4,0.3,2.7,0.8,3.9c0.6,1.2,1.5,2.3,2.7,3.1c1.2,0.8,2.7,1.3,4.3,1.3c2.3,0,4.2-0.8,5.7-2.3c1.5-1.5,2.3-3.7,2.3-6.4
		c0-2.6-0.8-4.7-2.4-6.2c-1.6-1.5-3.4-2.2-5.4-2.2c-2.1,0-4,0.8-5.7,2.4C20.2,65.6,19.4,67.7,19.4,70.4z"/>
	<path class="st1" d="M47.7,78.1V62h-5v-4.3h8.9v5.6c0.5-1.4,1.3-2.6,2.3-3.6c1-1,2-1.6,3.1-1.9c1.1-0.3,2.6-0.5,4.4-0.5h1.3v4.9h-1
		c-2.5,0-4.3,0.2-5.5,0.7c-1.2,0.5-2.1,1.4-2.7,2.7c-0.6,1.3-0.9,3.6-0.9,7v5.4H58v4.3H42.7v-4.3H47.7z"/>
	<path class="st0" d="M85.5,60.6c-2.6-2.4-5.6-3.6-9.2-3.6c-3.6,0-6.7,1.2-9.2,3.7c-2.5,2.4-3.8,5.6-3.8,9.4c0,3.8,1.2,6.9,3.7,9.4
		c2.5,2.5,5.6,3.7,9.3,3.7c3.6,0,6.6-1.2,9.2-3.6c2.5-2.4,3.8-5.6,3.8-9.4C89.3,66.2,88,63,85.5,60.6z M81.9,76
		c-1.5,1.6-3.4,2.4-5.6,2.4c-2.2,0-4.1-0.8-5.6-2.3c-1.5-1.6-2.3-3.6-2.3-6c0-2.4,0.7-4.3,2.2-5.9c1.5-1.6,3.4-2.4,5.7-2.4
		c2.2,0,4,0.8,5.6,2.4c1.5,1.6,2.3,3.6,2.3,6C84.2,72.4,83.4,74.4,81.9,76z"/>
	<path class="st1" d="M93,82.4v-8.5h4.3v0.8c0.2,1.2,0.8,2.1,1.9,2.8c1.1,0.7,2.4,1.1,3.9,1.1c1.6,0,2.8-0.3,3.8-0.8
		c0.9-0.5,1.4-1.3,1.4-2.3c0-0.9-0.4-1.6-1.2-2.1c-0.8-0.4-2.3-0.8-4.6-1.2c-3.4-0.6-5.8-1.5-7.3-2.8c-1.5-1.3-2.2-3-2.2-5
		c0-2.1,0.8-3.8,2.4-5.2c1.6-1.4,3.7-2.1,6.3-2.1c2.3,0,4.3,0.5,6,1.4v-1.1h4.3v8.2h-4.3v-1.5c-1.3-2-3.2-3-5.7-3
		c-1.3,0-2.3,0.3-3.2,0.8c-0.8,0.6-1.2,1.3-1.2,2.2c0,0.9,0.4,1.6,1.1,1.9c0.8,0.3,2.4,0.7,4.9,1.1c2.4,0.4,4.2,0.8,5.4,1.3
		c1.2,0.5,2.2,1.3,3.1,2.5c0.8,1.2,1.2,2.5,1.2,4.1c0,2.3-0.9,4.1-2.6,5.5c-1.8,1.4-4,2-6.9,2c-2.6,0-4.8-0.6-6.5-1.8v1.4H93z"/>
	<path class="st1" d="M119.7,89.2V62h-4.2v-4.3h9v3.9c2.4-2.8,5.3-4.3,8.8-4.3c3.5,0,6.3,1.2,8.6,3.6c2.3,2.4,3.4,5.5,3.4,9.3
		c0,4-1.2,7.2-3.7,9.5c-2.5,2.3-5.3,3.5-8.4,3.5c-3.3,0-6.2-1.3-8.7-3.8v9.8h4.8v4.3h-14.2v-4.3H119.7z M124.4,70.4
		c0,1.4,0.3,2.7,0.8,3.9c0.6,1.2,1.5,2.3,2.7,3.1c1.2,0.8,2.7,1.3,4.3,1.3c2.3,0,4.2-0.8,5.7-2.3c1.5-1.5,2.3-3.7,2.3-6.4
		c0-2.6-0.8-4.7-2.4-6.2c-1.6-1.5-3.4-2.2-5.4-2.2c-2.1,0-4,0.8-5.7,2.4C125.3,65.6,124.4,67.7,124.4,70.4z"/>
	<path class="st1" d="M174.2,71.3h-20.8c0.3,2.3,1.2,4.1,2.7,5.5c1.5,1.4,3.4,2.1,5.7,2.1c3.4,0,6.1-1.4,8-4.1l4.3,1.9
		c-1.4,2.2-3.2,3.8-5.4,4.8c-2.2,1-4.6,1.6-7,1.6c-3.8,0-7-1.2-9.7-3.5c-2.7-2.4-4-5.5-4-9.5c0-3.8,1.3-6.9,3.9-9.4
		c2.6-2.5,5.6-3.7,9-3.7c3.3,0,6.3,1.2,9,3.6C172.7,63,174.1,66.6,174.2,71.3z M169.2,67.8c-0.3-1.7-1.2-3.3-2.7-4.7
		c-1.5-1.4-3.3-2.1-5.4-2.1c-1.9,0-3.6,0.6-5,1.9c-1.4,1.3-2.2,2.9-2.5,4.9H169.2z"/>
	<path class="st1" d="M200.2,57.7v9.4h-4.3c-0.2-1.8-0.9-3.2-2.2-4.1c-1.2-1-2.7-1.4-4.3-1.4c-2.2,0-4,0.8-5.3,2.3
		c-1.4,1.5-2,3.6-2,6.1c0,2.3,0.6,4.4,1.9,6.2c1.3,1.8,3.2,2.7,5.6,2.7c3.4,0,5.9-1.6,7.4-4.8l4,1.9c-2.2,4.9-6.1,7.4-11.6,7.4
		c-3.9,0-7-1.3-9.2-4c-2.2-2.7-3.4-5.8-3.4-9.2c0-3.7,1.2-6.8,3.7-9.2c2.5-2.4,5.3-3.6,8.5-3.6c2.7,0,5.1,0.8,7,2.4v-1.7H200.2z"/>
	<path class="st1" d="M203.3,62v-4.3h3.2v-3.8l4.9-4.5v8.3h4.6V62h-4.6v12c0,1.9,0.1,3.1,0.3,3.6c0.2,0.5,0.7,0.7,1.6,0.7
		c0.9,0,1.8-0.2,2.7-0.5v4.4c-1.2,0.4-2.5,0.7-3.7,0.7c-1.5,0-2.7-0.3-3.6-1c-0.9-0.7-1.5-1.5-1.7-2.5c-0.2-1-0.4-2.7-0.4-5.1V62
		H203.3z"/>
	<path class="st1" d="M219.6,82.4v-8.5h4.3v0.8c0.2,1.2,0.8,2.1,1.9,2.8c1.1,0.7,2.4,1.1,3.9,1.1c1.6,0,2.8-0.3,3.8-0.8
		c0.9-0.5,1.4-1.3,1.4-2.3c0-0.9-0.4-1.6-1.2-2.1c-0.8-0.4-2.3-0.8-4.6-1.2c-3.4-0.6-5.8-1.5-7.3-2.8c-1.5-1.3-2.2-3-2.2-5
		c0-2.1,0.8-3.8,2.4-5.2c1.6-1.4,3.7-2.1,6.3-2.1c2.3,0,4.3,0.5,6,1.4v-1.1h4.3v8.2h-4.3v-1.5c-1.3-2-3.2-3-5.7-3
		c-1.3,0-2.3,0.3-3.2,0.8c-0.8,0.6-1.2,1.3-1.2,2.2c0,0.9,0.4,1.6,1.1,1.9c0.8,0.3,2.4,0.7,4.9,1.1c2.4,0.4,4.2,0.8,5.4,1.3
		c1.2,0.5,2.2,1.3,3.1,2.5c0.8,1.2,1.2,2.5,1.2,4.1c0,2.3-0.9,4.1-2.6,5.5c-1.8,1.4-4,2-6.9,2c-2.6,0-4.8-0.6-6.5-1.8v1.4H219.6z"/>
	<path class="st1" d="M129.8,17.5h1.2v34.3h-1.2V17.5z"/>
</g>
</svg>
